<?xml version="1.0" encoding="UTF-8"?>
<svg width="221px" height="71px" viewBox="0 0 221 71" version="1.1" xmlns="http://www.w3.org/2000/svg" xmlns:xlink="http://www.w3.org/1999/xlink">
    <!-- Generator: Sketch 41.2 (35397) - http://www.bohemiancoding.com/sketch -->
    <title>DYNAMIC MOMENTUM</title>
    <desc>Created with Sketch.</desc>
    <defs></defs>
    <g id="Page-1" stroke="none" stroke-width="1" fill="none" fill-rule="evenodd">
        <path d="M32.7964844,22.248 L32.7964844,6.048 L36.8284844,6.048 C38.2204913,6.048 39.3904796,6.24599802 40.3384844,6.642 C41.2864891,7.03800198 42.0484815,7.60799628 42.6244844,8.352 C43.2004873,9.09600372 43.6144831,9.98999478 43.8664844,11.034 C44.1184856,12.0780052 44.2444844,13.2479935 44.2444844,14.544 C44.2444844,15.9600071 44.0644862,17.1599951 43.7044844,18.144 C43.3444826,19.1280049 42.8644874,19.9259969 42.2644844,20.538 C41.6644814,21.1500031 40.9804882,21.5879987 40.2124844,21.852 C39.4444805,22.1160013 38.6524885,22.248 37.8364844,22.248 L32.7964844,22.248 Z M27.1444844,1.296 L27.1444844,27 L38.2324844,27 C40.2004942,27 41.9104771,26.6700033 43.3624844,26.01 C44.8144916,25.3499967 46.0264795,24.4440058 46.9984844,23.292 C47.9704892,22.1399942 48.696482,20.7720079 49.1764844,19.188 C49.6564868,17.6039921 49.8964844,15.8760094 49.8964844,14.004 C49.8964844,11.8679893 49.6024873,10.0080079 49.0144844,8.424 C48.4264814,6.83999208 47.6104896,5.52000528 46.5664844,4.464 C45.5224792,3.40799472 44.2864915,2.61600264 42.8584844,2.088 C41.4304772,1.55999736 39.8884927,1.296 38.2324844,1.296 L27.1444844,1.296 Z M60.4804844,16.992 L60.4804844,27 L66.1324844,27 L66.1324844,17.136 L75.6724844,1.296 L69.3724844,1.296 L63.3964844,11.448 L57.3844844,1.296 L51.0484844,1.296 L60.4804844,16.992 Z M77.8324844,1.296 L77.8324844,27 L83.1244844,27 L83.1244844,9.792 L83.1964844,9.792 L93.8884844,27 L99.5404844,27 L99.5404844,1.296 L94.2484844,1.296 L94.2484844,18.54 L94.1764844,18.54 L83.4484844,1.296 L77.8324844,1.296 Z M110.988484,17.064 L114.336484,7.632 L114.408484,7.632 L117.648484,17.064 L110.988484,17.064 Z M111.528484,1.296 L101.808484,27 L107.496484,27 L109.512484,21.276 L119.124484,21.276 L121.068484,27 L126.936484,27 L117.324484,1.296 L111.528484,1.296 Z M129.168484,1.296 L129.168484,27 L134.460484,27 L134.460484,8.964 L134.532484,8.964 L140.832484,27 L145.188484,27 L151.488484,8.784 L151.560484,8.784 L151.560484,27 L156.852484,27 L156.852484,1.296 L148.896484,1.296 L143.208484,18.972 L143.136484,18.972 L137.124484,1.296 L129.168484,1.296 Z M161.820484,1.296 L161.820484,27 L167.472484,27 L167.472484,1.296 L161.820484,1.296 Z M189.576484,9.936 L195.048484,9.936 C194.880484,8.44799256 194.472488,7.12800576 193.824484,5.976 C193.176481,4.82399424 192.354489,3.8580039 191.358484,3.078 C190.362479,2.2979961 189.234491,1.70400204 187.974484,1.296 C186.714478,0.88799796 185.376491,0.684 183.960484,0.684 C181.992475,0.684 180.222492,1.03199652 178.650484,1.728 C177.078477,2.42400348 175.75249,3.38399388 174.672484,4.608 C173.592479,5.83200612 172.764487,7.26599178 172.188484,8.91 C171.612481,10.5540082 171.324484,12.3359904 171.324484,14.256 C171.324484,16.1280094 171.612481,17.8739919 172.188484,19.494 C172.764487,21.1140081 173.592479,22.523994 174.672484,23.724 C175.75249,24.924006 177.078477,25.8659966 178.650484,26.55 C180.222492,27.2340034 181.992475,27.576 183.960484,27.576 C185.544492,27.576 186.996478,27.3360024 188.316484,26.856 C189.636491,26.3759976 190.788479,25.6800046 191.772484,24.768 C192.756489,23.8559954 193.548481,22.7520065 194.148484,21.456 C194.748487,20.1599935 195.120484,18.708008 195.264484,17.1 L189.792484,17.1 C189.576483,18.8280086 188.982489,20.2199947 188.010484,21.276 C187.03848,22.3320053 185.688493,22.86 183.960484,22.86 C182.688478,22.86 181.608489,22.6140025 180.720484,22.122 C179.83248,21.6299975 179.112487,20.9760041 178.560484,20.16 C178.008482,19.3439959 177.606486,18.4260051 177.354484,17.406 C177.102483,16.3859949 176.976484,15.3360054 176.976484,14.256 C176.976484,13.1279944 177.102483,12.0360053 177.354484,10.98 C177.606486,9.92399472 178.008482,8.98200414 178.560484,8.154 C179.112487,7.32599586 179.83248,6.66600246 180.720484,6.174 C181.608489,5.68199754 182.688478,5.436 183.960484,5.436 C184.656488,5.436 185.322481,5.54999886 185.958484,5.778 C186.594488,6.00600114 187.164482,6.32399796 187.668484,6.732 C188.172487,7.14000204 188.592483,7.6139973 188.928484,8.154 C189.264486,8.6940027 189.480484,9.28799676 189.576484,9.936 Z M0.810484375,44.296 L0.810484375,70 L6.10248437,70 L6.10248437,51.964 L6.17448437,51.964 L12.4744844,70 L16.8304844,70 L23.1304844,51.784 L23.2024844,51.784 L23.2024844,70 L28.4944844,70 L28.4944844,44.296 L20.5384844,44.296 L14.8504844,61.972 L14.7784844,61.972 L8.76648438,44.296 L0.810484375,44.296 Z M37.9984844,57.256 C37.9984844,56.1279944 38.1244831,55.0360053 38.3764844,53.98 C38.6284856,52.9239947 39.0304816,51.9820041 39.5824844,51.154 C40.1344871,50.3259959 40.8544799,49.6660025 41.7424844,49.174 C42.6304888,48.6819975 43.710478,48.436 44.9824844,48.436 C46.2544907,48.436 47.3344799,48.6819975 48.2224844,49.174 C49.1104888,49.6660025 49.8304816,50.3259959 50.3824844,51.154 C50.9344871,51.9820041 51.3364831,52.9239947 51.5884844,53.98 C51.8404856,55.0360053 51.9664844,56.1279944 51.9664844,57.256 C51.9664844,58.3360054 51.8404856,59.3859949 51.5884844,60.406 C51.3364831,61.4260051 50.9344871,62.3439959 50.3824844,63.16 C49.8304816,63.9760041 49.1104888,64.6299975 48.2224844,65.122 C47.3344799,65.6140025 46.2544907,65.86 44.9824844,65.86 C43.710478,65.86 42.6304888,65.6140025 41.7424844,65.122 C40.8544799,64.6299975 40.1344871,63.9760041 39.5824844,63.16 C39.0304816,62.3439959 38.6284856,61.4260051 38.3764844,60.406 C38.1244831,59.3859949 37.9984844,58.3360054 37.9984844,57.256 Z M32.3464844,57.256 C32.3464844,59.1280094 32.6344815,60.8739919 33.2104844,62.494 C33.7864873,64.1140081 34.614479,65.523994 35.6944844,66.724 C36.7744898,67.924006 38.1004765,68.8659966 39.6724844,69.55 C41.2444922,70.2340034 43.0144745,70.576 44.9824844,70.576 C46.9744943,70.576 48.7504766,70.2340034 50.3104844,69.55 C51.8704922,68.8659966 53.190479,67.924006 54.2704844,66.724 C55.3504898,65.523994 56.1784815,64.1140081 56.7544844,62.494 C57.3304873,60.8739919 57.6184844,59.1280094 57.6184844,57.256 C57.6184844,55.3359904 57.3304873,53.5540082 56.7544844,51.91 C56.1784815,50.2659918 55.3504898,48.8320061 54.2704844,47.608 C53.190479,46.3839939 51.8704922,45.4240035 50.3104844,44.728 C48.7504766,44.0319965 46.9744943,43.684 44.9824844,43.684 C43.0144745,43.684 41.2444922,44.0319965 39.6724844,44.728 C38.1004765,45.4240035 36.7744898,46.3839939 35.6944844,47.608 C34.614479,48.8320061 33.7864873,50.2659918 33.2104844,51.91 C32.6344815,53.5540082 32.3464844,55.3359904 32.3464844,57.256 Z M61.4704844,44.296 L61.4704844,70 L66.7624844,70 L66.7624844,51.964 L66.8344844,51.964 L73.1344844,70 L77.4904844,70 L83.7904844,51.784 L83.8624844,51.784 L83.8624844,70 L89.1544844,70 L89.1544844,44.296 L81.1984844,44.296 L75.5104844,61.972 L75.4384844,61.972 L69.4264844,44.296 L61.4704844,44.296 Z M94.1224844,44.296 L94.1224844,70 L113.634484,70 L113.634484,65.248 L99.7744844,65.248 L99.7744844,58.948 L112.230484,58.948 L112.230484,54.556 L99.7744844,54.556 L99.7744844,49.048 L113.346484,49.048 L113.346484,44.296 L94.1224844,44.296 Z M117.450484,44.296 L117.450484,70 L122.742484,70 L122.742484,52.792 L122.814484,52.792 L133.506484,70 L139.158484,70 L139.158484,44.296 L133.866484,44.296 L133.866484,61.54 L133.794484,61.54 L123.066484,44.296 L117.450484,44.296 Z M149.814484,49.048 L149.814484,70 L155.466484,70 L155.466484,49.048 L163.170484,49.048 L163.170484,44.296 L142.110484,44.296 L142.110484,49.048 L149.814484,49.048 Z M187.938484,60.28 L187.938484,44.296 L182.286484,44.296 L182.286484,60.28 C182.286484,62.2000096 181.902488,63.6099955 181.134484,64.51 C180.366481,65.4100045 178.974494,65.86 176.958484,65.86 C175.806479,65.86 174.888488,65.6980016 174.204484,65.374 C173.520481,65.0499984 172.986486,64.6300026 172.602484,64.114 C172.218482,63.5979974 171.966485,63.0040034 171.846484,62.332 C171.726484,61.6599966 171.666484,60.9760035 171.666484,60.28 L171.666484,44.296 L166.014484,44.296 L166.014484,60.28 C166.014484,63.7840175 166.968475,66.3759916 168.876484,68.056 C170.784494,69.7360084 173.478467,70.576 176.958484,70.576 C180.390502,70.576 183.078475,69.7300085 185.022484,68.038 C186.966494,66.3459915 187.938484,63.7600174 187.938484,60.28 Z M192.798484,44.296 L192.798484,70 L198.090484,70 L198.090484,51.964 L198.162484,51.964 L204.462484,70 L208.818484,70 L215.118484,51.784 L215.190484,51.784 L215.190484,70 L220.482484,70 L220.482484,44.296 L212.526484,44.296 L206.838484,61.972 L206.766484,61.972 L200.754484,44.296 L192.798484,44.296 Z" id="DYNAMIC-MOMENTUM" fill="#4F4F4F"></path>
    </g>
</svg>